# xmcd CD database file generated by Grip 3.2.0
# 
# Track frame offsets:
#       150
#       16473
#       33498
#       49898
#       65767
#       77028
#       90816
#       111105
#       121633
#       138990
#       154293
#       171048
#       186435
#       202028
# 
# Disc length: 2972 seconds
# 
# Revision: 1
# Processed by: cddbd v1.5.2PL0 Copyright (c) Steve Scherf et al.
# Submitted via: Grip 3.2.0
# 
DISCID=ba0b9a0e
DTITLE=LAMA - New!
DYEAR=2011
DGENRE=Electronic
TTITLE0=Warning
TTITLE1=Night Telepathy
TTITLE2=Rockin' Your Eyes
TTITLE3=Spell (Alternative ver)
TTITLE4=Tune On, Tune In, Surf Out
TTITLE5=Cupid (So Far... ver)
TTITLE6=Blind Mind
TTITLE7=doudou
TTITLE8=Soul Diving
TTITLE9=Silver Spring
TTITLE10=Fantasy (The Room ver)
TTITLE11=Don't Go Back
TTITLE12=Ane Mone
TTITLE13=Dreamin'
EXTD=
EXTT0=
EXTT1=
EXTT2=
EXTT3=
EXTT4=
EXTT5=
EXTT6=
EXTT7=
EXTT8=
EXTT9=
EXTT10=
EXTT11=
EXTT12=
EXTT13=
PLAYORDER=
